<svg xmlns="http://www.w3.org/2000/svg" width="36" height="37.88" viewBox="0 0 36 37.88">
  <defs>
    <style>
      .cls-1 {
        fill: #ecd6d6;
      }

      .cls-2 {
        fill-rule: evenodd;
      }
    </style>
  </defs>
  <circle id="Ellipse_5_copy" data-name="Ellipse 5 copy" class="cls-1" cx="18" cy="19.88" r="18"/>
  <path class="cls-2" d="M1799.55,1549.98a0.623,0.623,0,0,0-.62.62v4.3a3.115,3.115,0,0,1-3.12,3.11h-6.72a0.619,0.619,0,0,0-.62.63l-0.01,1.23-1.48-1.48a0.637,0.637,0,0,0-.57-0.38h-4.05a3.107,3.107,0,0,1-3.11-3.11v-9.59a3.115,3.115,0,0,1,3.11-3.12h6.29a0.617,0.617,0,0,0,.62-0.62,0.623,0.623,0,0,0-.62-0.62h-6.29a4.364,4.364,0,0,0-4.36,4.36v9.59a4.37,4.37,0,0,0,4.36,4.36h3.73l2.56,2.56a0.6,0.6,0,0,0,.44.18,0.593,0.593,0,0,0,.23-0.05,0.605,0.605,0,0,0,.39-0.57v-2.12h6.1a4.364,4.364,0,0,0,4.36-4.36v-4.3A0.623,0.623,0,0,0,1799.55,1549.98Zm1.29-19.87h-1.58a9.055,9.055,0,0,0,0,18.11h1.58a8.775,8.775,0,0,0,2.29-.3l2.33,2.33a0.62,0.62,0,0,0,.44.18,0.519,0.519,0,0,0,.24-0.05,0.62,0.62,0,0,0,.39-0.57v-3.6a9.3,9.3,0,0,0,2.38-2.94A9.061,9.061,0,0,0,1800.84,1530.11Zm4.69,15.29a0.63,0.63,0,0,0-.25.5v2.41l-1.52-1.53a0.62,0.62,0,0,0-.44-0.18,0.582,0.582,0,0,0-.19.03,8.036,8.036,0,0,1-2.29.34h-1.58a7.805,7.805,0,1,1,0-15.61h1.58A7.805,7.805,0,0,1,1805.53,1545.4Zm-2.68-8.47a2.633,2.633,0,0,0-5.26.18,0.611,0.611,0,0,0,.62.62,0.617,0.617,0,0,0,.62-0.62,1.407,1.407,0,0,1,.44-1.02,1.445,1.445,0,0,1,1.05-.37,1.4,1.4,0,0,1,1.29,1.29,1.383,1.383,0,0,1-1.08,1.46,1.175,1.175,0,0,0-.93,1.15v1.5a0.625,0.625,0,0,0,1.25,0v-1.45A2.615,2.615,0,0,0,1802.85,1536.93Zm-2.19,6.21a0.628,0.628,0,0,0-.44-0.18,0.625,0.625,0,1,0,0,1.25,0.628,0.628,0,0,0,.44-0.18A0.616,0.616,0,0,0,1800.66,1543.14Zm-5.53,6.28h-13.14a0.625,0.625,0,0,0-.63.62,0.619,0.619,0,0,0,.63.62h13.14a0.617,0.617,0,0,0,.62-0.62A0.623,0.623,0,0,0,1795.13,1549.42Zm0.44,3.67a0.62,0.62,0,0,0-.44-0.18,0.588,0.588,0,0,0-.44.18,0.6,0.6,0,0,0,0,.88,0.588,0.588,0,0,0,.44.18,0.62,0.62,0,0,0,.44-0.18A0.628,0.628,0,0,0,1795.57,1553.09Zm-2.89-.18h-10.69a0.62,0.62,0,1,0,0,1.24h10.69A0.62,0.62,0,1,0,1792.68,1552.91Zm-1.6-6.98h-9.09a0.625,0.625,0,1,0,0,1.25h9.09A0.625,0.625,0,0,0,1791.08,1545.93Z" transform="translate(-1778 -1530.12)"/>
</svg>
