<svg xmlns="http://www.w3.org/2000/svg" width="42.16" height="39.56" viewBox="0 0 42.16 39.56">
  <defs>
    <style>
      .cls-1 {
        fill: #ecd6d6;
      }

      .cls-2 {
        fill-rule: evenodd;
      }
    </style>
  </defs>
  <circle class="cls-1" cx="24.16" cy="21.56" r="18"/>
  <path class="cls-2" d="M1492.1,1547.51a14.352,14.352,0,0,0-4.13-8.69,14.141,14.141,0,0,0-7.01-3.84v-1.8a2.41,2.41,0,0,0-.58-4.75h-5.11a2.41,2.41,0,0,0-.58,4.75v1.8a14.238,14.238,0,0,0-6.99,3.84,15.359,15.359,0,0,0-1.2,1.36h-5.11a0.705,0.705,0,1,0,0,1.41h4.14a14.483,14.483,0,0,0-1.25,2.72h-7.72a0.71,0.71,0,0,0,0,1.42h7.31a14.788,14.788,0,0,0-.35,2.72h-3.13a0.71,0.71,0,1,0,0,1.42h3.16a13.9,13.9,0,0,0,.44,2.72h-4.6a0.71,0.71,0,0,0,0,1.42h5.05a14.319,14.319,0,0,0,11.98,9.15,13.312,13.312,0,0,0,1.41.07,14.461,14.461,0,0,0,7.82-2.3,0.711,0.711,0,0,0-.78-1.19,12.883,12.883,0,1,1,3.8-3.8,0.709,0.709,0,1,0,1.19.77A14.341,14.341,0,0,0,1492.1,1547.51Zm-17.82-16.67a0.986,0.986,0,0,1,.99-0.99h5.11a0.99,0.99,0,1,1,0,1.98h-5.11A0.986,0.986,0,0,1,1474.28,1530.84Zm1.83,3.9v-1.49h3.43v1.48A14.575,14.575,0,0,0,1476.11,1534.74Zm11.36,23.09a0.712,0.712,0,0,0-.5.21,0.688,0.688,0,0,0-.21.5,0.717,0.717,0,0,0,.71.71,0.688,0.688,0,0,0,.5-0.21,0.712,0.712,0,0,0,.21-0.5A0.717,0.717,0,0,0,1487.47,1557.83Zm-9.63-19.88a10.98,10.98,0,1,0,11,10.98A11,11,0,0,0,1477.84,1537.95Zm0,20.55a9.57,9.57,0,1,1,9.58-9.57A9.594,9.594,0,0,1,1477.84,1558.5Zm4.48-15.05-3.51,3.51a2.1,2.1,0,0,0-.97-0.23,2.174,2.174,0,0,0-.98.23l-1.57-1.57a0.707,0.707,0,0,0-1,1l1.57,1.57a2.1,2.1,0,0,0-.23.97,2.205,2.205,0,0,0,4.41,0,2.1,2.1,0,0,0-.23-0.97l3.41-3.41h0l0.11-.1A0.711,0.711,0,0,0,1482.32,1543.45Zm-4.48,6.26a0.78,0.78,0,1,1,.78-0.78A0.783,0.783,0,0,1,1477.84,1549.71Zm7.58-1.48h-0.66a0.71,0.71,0,1,0,0,1.42h0.66A0.71,0.71,0,0,0,1485.42,1548.23Zm-14.51-.02h-0.66a0.71,0.71,0,0,0,0,1.42h0.66A0.71,0.71,0,1,0,1470.91,1548.21Zm6.94-5.49a0.7,0.7,0,0,0,.7-0.71v-0.65a0.705,0.705,0,1,0-1.41,0v0.65A0.7,0.7,0,0,0,1477.85,1542.72Zm-0.02,12.42a0.7,0.7,0,0,0-.71.7v0.66a0.71,0.71,0,0,0,1.42,0v-0.66A0.7,0.7,0,0,0,1477.83,1555.14Zm-21.27-2.55a0.754,0.754,0,0,0-.51.21,0.725,0.725,0,0,0,0,1,0.712,0.712,0,0,0,1.01,0,0.72,0.72,0,0,0,.2-0.5,0.7,0.7,0,0,0-.2-0.5A0.749,0.749,0,0,0,1456.56,1552.59Z" transform="translate(-1455.84 -1528.44)"/>
</svg>
